<svg width="26" height="27" viewBox="0 0 26 27" fill="none" xmlns="http://www.w3.org/2000/svg">
<path fill-rule="evenodd" clip-rule="evenodd" d="M18.0371 0.926147H1.66671C0.974114 0.926147 0.407448 1.49281 0.407448 2.18541V19.815L5.44448 14.778H18.0371C18.7297 14.778 19.2963 14.2113 19.2963 13.5187V2.18541C19.2963 1.49281 18.7297 0.926147 18.0371 0.926147ZM16.7778 3.44458V12.2594H4.39931L3.65635 13.0024L2.92598 13.7327V3.44458H16.7778ZM21.8149 5.96321H24.3334C25.026 5.96321 25.5926 6.52987 25.5926 7.22247V26.1114L20.5556 21.0743H6.70374C6.01115 21.0743 5.44448 20.5077 5.44448 19.8151V17.2965H21.8149V5.96321Z" fill="white"/>
</svg>
