<svg width="13" height="12" viewBox="0 0 13 12" fill="none" xmlns="http://www.w3.org/2000/svg">
<path fill-rule="evenodd" clip-rule="evenodd" d="M8.71143 7.54717H9.25345L12.6771 10.9777L11.6548 12L8.22429 8.57633V8.03431L8.03905 7.8422C7.25688 8.51458 6.24145 8.91938 5.13682 8.91938C2.67369 8.91938 0.677124 6.92281 0.677124 4.45969C0.677124 1.99657 2.67369 0 5.13682 0C7.59994 0 9.59651 1.99657 9.59651 4.45969C9.59651 5.56432 9.1917 6.57976 8.51932 7.36192L8.71143 7.54717ZM2.04933 4.4597C2.04933 6.16811 3.42841 7.54718 5.13681 7.54718C6.84522 7.54718 8.22429 6.16811 8.22429 4.4597C8.22429 2.7513 6.84522 1.37222 5.13681 1.37222C3.42841 1.37222 2.04933 2.7513 2.04933 4.4597Z" fill="#333333"/>
</svg>
