<svg width="26" height="20" viewBox="0 0 26 20" fill="none" xmlns="http://www.w3.org/2000/svg">
<path fill-rule="evenodd" clip-rule="evenodd" d="M3.11117 0.66626H23.1112C24.3334 0.66626 25.3334 1.66626 25.3334 2.88848V17.3329C25.3334 18.5551 24.3334 19.5551 23.1112 19.5551H3.11117C1.88895 19.5551 0.888947 18.5551 0.888947 17.3329V2.88848C0.888947 1.66626 1.88895 0.66626 3.11117 0.66626ZM3.11117 2.88848V17.3329H12.0001V2.88848H3.11117ZM23.1112 17.3329H14.2223V2.88848H23.1112V17.3329ZM22.0001 6.77737H15.3334V8.44404H22.0001V6.77737ZM15.3334 9.55515H22.0001V11.2218H15.3334V9.55515ZM22.0001 12.3329H15.3334V13.9996H22.0001V12.3329Z" fill="white"/>
</svg>
